<svg width="128" height="128" viewBox="0 0 128 128" fill="none" xmlns="http://www.w3.org/2000/svg">
<g clip-path="url(#clip0_1_2)">
<path d="M112 0H16C7.16344 0 0 7.16344 0 16V112C0 120.837 7.16344 128 16 128H112C120.837 128 128 120.837 128 112V16C128 7.16344 120.837 0 112 0Z" fill="#4CAF50"/>
<path d="M31.4119 85H20.8665L36.9347 38.4545H49.6165L65.6619 85H55.1165L43.4574 49.0909H43.0938L31.4119 85ZM30.7528 66.7045H55.6619V74.3864H30.7528V66.7045ZM71.2642 85V38.4545H89.6278C93.1581 38.4545 96.1657 39.1288 98.6506 40.4773C101.135 41.8106 103.029 43.6667 104.332 46.0455C105.651 48.4091 106.31 51.1364 106.31 54.2273C106.31 57.3182 105.643 60.0455 104.31 62.4091C102.976 64.7727 101.045 66.6136 98.5142 67.9318C95.9991 69.25 92.9536 69.9091 89.3778 69.9091H77.6733V62.0227H87.7869C89.6809 62.0227 91.2415 61.697 92.4688 61.0455C93.7112 60.3788 94.6354 59.4621 95.2415 58.2955C95.8627 57.1136 96.1733 55.7576 96.1733 54.2273C96.1733 52.6818 95.8627 51.3333 95.2415 50.1818C94.6354 49.0151 93.7112 48.1136 92.4688 47.4773C91.2263 46.8258 89.6506 46.5 87.7415 46.5H81.1051V85H71.2642Z" fill="white"/>
</g>
<defs>
<clipPath id="clip0_1_2">
<rect width="128" height="128" fill="white"/>
</clipPath>
</defs>
</svg>
