<svg width="128" height="128" viewBox="0 0 128 128" fill="none" xmlns="http://www.w3.org/2000/svg">
<g clip-path="url(#clip0_2_2)">
<path d="M112 0H16C7.16344 0 0 7.16344 0 16V112C0 120.837 7.16344 128 16 128H112C120.837 128 128 120.837 128 112V16C128 7.16344 120.837 0 112 0Z" fill="#F5B912"/>
<path d="M50.0028 53.5C49.6847 52.3939 49.2377 51.4167 48.6619 50.5682C48.0862 49.7045 47.3816 48.9773 46.5483 48.3864C45.7301 47.7803 44.7907 47.3182 43.7301 47C42.6847 46.6818 41.5256 46.5227 40.2528 46.5227C37.8741 46.5227 35.7831 47.1136 33.9801 48.2955C32.1922 49.4773 30.7983 51.197 29.7983 53.4545C28.7983 55.697 28.2983 58.4394 28.2983 61.6818C28.2983 64.9242 28.7907 67.6818 29.7756 69.9545C30.7604 72.2273 32.1544 73.9621 33.9574 75.1591C35.7604 76.3409 37.8892 76.9318 40.3438 76.9318C42.571 76.9318 44.4725 76.5379 46.0483 75.75C47.6392 74.947 48.8513 73.8182 49.6847 72.3636C50.5331 70.9091 50.9574 69.1894 50.9574 67.2045L52.9574 67.5H40.9574V60.0909H60.4347V65.9545C60.4347 70.0455 59.571 73.5606 57.8438 76.5C56.1165 79.4242 53.7377 81.6818 50.7074 83.2727C47.6771 84.8485 44.2074 85.6364 40.2983 85.6364C35.9347 85.6364 32.1013 84.6742 28.7983 82.75C25.4953 80.8106 22.9195 78.0606 21.071 74.5C19.2377 70.9242 18.321 66.6818 18.321 61.7727C18.321 58 18.8665 54.6364 19.9574 51.6818C21.0634 48.7121 22.6089 46.197 24.5938 44.1364C26.5786 42.0758 28.8892 40.5076 31.5256 39.4318C34.1619 38.3561 37.018 37.8182 40.0938 37.8182C42.7301 37.8182 45.1847 38.2045 47.4574 38.9773C49.7301 39.7348 51.7453 40.8106 53.5028 42.2045C55.2756 43.5985 56.7225 45.2576 57.8438 47.1818C58.965 49.0909 59.6847 51.197 60.0028 53.5H50.0028ZM108.895 54.75H98.9403C98.7585 53.4621 98.3873 52.3182 97.8267 51.3182C97.2661 50.303 96.5464 49.4394 95.6676 48.7273C94.7888 48.0151 93.7737 47.4697 92.6222 47.0909C91.4858 46.7121 90.2509 46.5227 88.9176 46.5227C86.5085 46.5227 84.41 47.1212 82.6222 48.3182C80.8343 49.5 79.4479 51.2273 78.4631 53.5C77.4782 55.7576 76.9858 58.5 76.9858 61.7273C76.9858 65.0455 77.4782 67.8333 78.4631 70.0909C79.4631 72.3485 80.857 74.053 82.6449 75.2045C84.4328 76.3561 86.5009 76.9318 88.8494 76.9318C90.1676 76.9318 91.3873 76.7576 92.5085 76.4091C93.6449 76.0606 94.6525 75.553 95.5312 74.8864C96.41 74.2045 97.1373 73.3788 97.7131 72.4091C98.304 71.4394 98.7131 70.3333 98.9403 69.0909L108.895 69.1364C108.637 71.2727 107.993 73.3333 106.963 75.3182C105.948 77.2879 104.577 79.053 102.849 80.6136C101.137 82.1591 99.0919 83.3864 96.7131 84.2955C94.3494 85.1894 91.6752 85.6364 88.6903 85.6364C84.5388 85.6364 80.8267 84.697 77.554 82.8182C74.2964 80.9394 71.7206 78.2197 69.8267 74.6591C67.9479 71.0985 67.0085 66.7879 67.0085 61.7273C67.0085 56.6515 67.9631 52.3333 69.8722 48.7727C71.7813 45.2121 74.3722 42.5 77.6449 40.6364C80.9176 38.7576 84.5994 37.8182 88.6903 37.8182C91.3873 37.8182 93.8873 38.197 96.1903 38.9545C98.5085 39.7121 100.562 40.8182 102.349 42.2727C104.137 43.7121 105.592 45.4773 106.713 47.5682C107.849 49.6591 108.577 52.053 108.895 54.75Z" fill="white"/>
</g>
<defs>
<clipPath id="clip0_2_2">
<rect width="128" height="128" fill="white"/>
</clipPath>
</defs>
</svg>
